<svg width="832" height="364" viewBox="0 0 832 364" fill="none" xmlns="http://www.w3.org/2000/svg">
<path d="M399.707 356.707C400.098 356.317 400.098 355.683 399.707 355.293L393.343 348.929C392.953 348.538 392.319 348.538 391.929 348.929C391.538 349.319 391.538 349.953 391.929 350.343L397.586 356L391.929 361.657C391.538 362.047 391.538 362.681 391.929 363.071C392.319 363.462 392.953 363.462 393.343 363.071L399.707 356.707ZM399 7H397V9H399V7ZM393 7H389V9H393V7ZM385 7H381V9H385V7ZM377 7H373V9H377V7ZM369 7H365V9H369V7ZM361 7H357V9H361V7ZM353 7H349V9H353V7ZM345 7H341V9H345V7ZM337 7H333V9H337V7ZM329 7H325V9H329V7ZM321 7H317V9H321V7ZM313 7H309V9H313V7ZM305 7H301V9H305V7ZM297 7H293V9H297V7ZM289 7H285V9H289V7ZM281 7H277V9H281V7ZM273 7H269V9H273V7ZM265 7H261V9H265V7ZM257 7H253V9H257V7ZM249 7H245V9H249V7ZM241 7H237V9H241V7ZM233 7H229V9H233V7ZM225 7H221V9H225V7ZM217 7H213V9H217V7ZM209 7H205V9H209V7ZM201 7H197V9H201V7ZM193 7H189V9H193V7ZM185 7H181V9H185V7ZM177 7H175V9H177V7ZM175 7C174.322 7 173.646 7.00385 172.97 7.01153L172.993 9.01141C173.661 9.00381 174.33 9 175 9V7ZM168.926 7.10344C167.578 7.14943 166.234 7.21066 164.894 7.28698L165.007 9.28374C166.332 9.20829 167.661 9.14775 168.994 9.10228L168.926 7.10344ZM160.854 7.56348C159.511 7.67093 158.172 7.79354 156.838 7.93114L157.043 9.92059C158.362 9.78455 159.686 9.66334 161.014 9.55712L160.854 7.56348ZM152.813 8.39325C151.476 8.56243 150.143 8.74671 148.816 8.94589L149.113 10.9238C150.425 10.7268 151.742 10.5447 153.064 10.3774L152.813 8.39325ZM144.818 9.59316C143.49 9.82416 142.166 10.0701 140.848 10.3309L141.236 12.2929C142.539 12.0351 143.847 11.792 145.161 11.5636L144.818 9.59316ZM136.888 11.1622C135.571 11.4548 134.259 11.7622 132.953 12.0842L133.432 14.026C134.723 13.7077 136.02 13.4038 137.322 13.1146L136.888 11.1622ZM129.039 13.0981C127.737 13.4517 126.44 13.82 125.15 14.2027L125.719 16.1201C126.994 15.7418 128.276 15.3778 129.563 15.0283L129.039 13.0981ZM121.289 15.3972C120.004 15.8111 118.725 16.2394 117.454 16.682L118.111 18.5709C119.368 18.1334 120.632 17.71 121.902 17.3008L121.289 15.3972ZM113.653 18.0546C112.389 18.5278 111.132 19.0153 109.882 19.5168L110.626 21.373C111.862 20.8773 113.105 20.3954 114.355 19.9276L113.653 18.0546ZM106.15 21.0643C104.909 21.5959 103.676 22.1413 102.45 22.7005L103.28 24.5201C104.492 23.9674 105.711 23.4282 106.937 22.9028L106.15 21.0643ZM98.7941 24.4196C97.5795 25.008 96.3727 25.6102 95.1739 26.2257L96.0874 28.0049C97.2725 27.3964 98.4654 26.8012 99.6662 26.2194L98.7941 24.4196ZM91.6018 28.1124C90.4159 28.7565 89.2383 29.4138 88.0692 30.0842L89.0641 31.8192C90.2199 31.1564 91.384 30.5066 92.5563 29.87L91.6018 28.1124ZM84.5874 32.1347C83.433 32.8327 82.2874 33.5435 81.1506 34.2672L82.2246 35.9543C83.3484 35.2389 84.481 34.5362 85.6222 33.8463L84.5874 32.1347ZM77.7666 36.4766C76.646 37.2268 75.5346 37.9897 74.4325 38.7649L75.5831 40.4007C76.6727 39.6343 77.7714 38.8802 78.8792 38.1386L77.7666 36.4766ZM71.1534 41.1283C70.0689 41.9291 68.9939 42.7422 67.9287 43.5672L69.1534 45.1484C70.2065 44.3327 71.2692 43.5289 72.3414 42.7372L71.1534 41.1283ZM64.7615 46.0792C63.7152 46.9289 62.6788 47.7905 61.6526 48.6636L62.9487 50.1868C63.9632 49.3236 64.9878 48.4718 66.0223 47.6318L64.7615 46.0792ZM58.6041 51.3186C57.598 52.2154 56.6024 53.1236 55.6173 54.043L56.982 55.505C57.9558 54.5961 58.9402 53.6982 59.9348 52.8117L58.6041 51.3186ZM52.6938 56.8352C51.7301 57.7771 50.7772 58.73 49.8353 59.6937L51.2657 61.0916C52.1968 60.1388 53.1389 59.1967 54.0917 58.2656L52.6938 56.8352ZM47.043 62.6172C46.1236 63.6023 45.2154 64.5979 44.3187 65.604L45.8117 66.9348C46.6983 65.9401 47.5961 64.9558 48.5051 63.9819L47.043 62.6172ZM41.6637 68.6525C40.7905 69.6787 39.929 70.7151 39.0793 71.7615L40.6319 73.0222C41.4719 71.9877 42.3236 70.9631 43.1869 69.9487L41.6637 68.6525ZM36.5673 74.9286C35.7422 75.9938 34.9292 77.0688 34.1283 78.1533L35.7372 79.3414C36.529 78.2691 37.3328 77.2064 38.1485 76.1533L36.5673 74.9286ZM31.7649 81.4324C30.9897 82.5345 30.2269 83.6459 29.4767 84.7665L31.1386 85.8791C31.8803 84.7713 32.6344 83.6726 33.4008 82.583L31.7649 81.4324ZM27.2672 88.1505C26.5436 89.2873 25.8327 90.4329 25.1348 91.5873L26.8463 92.6221C27.5362 91.4809 28.239 90.3483 28.9544 89.2245L27.2672 88.1505ZM23.0843 95.0691C22.4139 96.2382 21.7565 97.4158 21.1125 98.6017L22.87 99.5562C23.5067 98.3839 24.1565 97.2198 24.8193 96.064L23.0843 95.0691ZM19.2258 102.174C18.6102 103.373 18.0081 104.579 17.4196 105.794L19.2195 106.666C19.8012 105.465 20.3964 104.272 21.0049 103.087L19.2258 102.174ZM15.7005 109.45C15.1413 110.676 14.5959 111.909 14.0644 113.15L15.9028 113.937C16.4282 112.711 16.9674 111.492 17.5201 110.28L15.7005 109.45ZM12.5168 116.882C12.0153 118.132 11.5279 119.389 11.0546 120.653L12.9277 121.354C13.3955 120.105 13.8773 118.862 14.3731 117.626L12.5168 116.882ZM9.68207 124.454C9.23946 125.725 8.81111 127.004 8.39721 128.289L10.3009 128.902C10.71 127.632 11.1334 126.368 11.5709 125.111L9.68207 124.454ZM7.20273 132.15C6.82 133.44 6.45174 134.737 6.09814 136.039L8.02828 136.563C8.37781 135.275 8.74183 133.994 9.12015 132.719L7.20273 132.15ZM5.08426 139.953C4.76221 141.259 4.45481 142.571 4.16225 143.888L6.11467 144.322C6.40386 143.02 6.70773 141.723 7.02608 140.432L5.08426 139.953ZM3.33096 147.848C3.07017 149.166 2.82418 150.489 2.59318 151.818L4.56362 152.161C4.79197 150.847 5.03514 149.539 5.29294 148.236L3.33096 147.848ZM1.94591 155.816C1.74673 157.143 1.56245 158.476 1.39327 159.813L3.37745 160.064C3.5447 158.742 3.72687 157.425 3.92377 156.112L1.94591 155.816ZM0.931154 163.838C0.793548 165.172 0.670938 166.511 0.563495 167.854L2.55713 168.014C2.66335 166.686 2.78457 165.362 2.9206 164.043L0.931154 163.838ZM0.286982 171.894C0.210666 173.234 0.149432 174.578 0.103447 175.926L2.10228 175.994C2.14775 174.661 2.20829 173.332 2.28375 172.007L0.286982 171.894ZM0.0115358 179.97C0.00385213 180.646 0 181.322 0 182H2C2 181.33 2.00381 180.661 2.01141 179.992L0.0115358 179.97ZM0 182C0 182.678 0.00385183 183.354 0.0115349 184.03L2.01141 184.007C2.00381 183.339 2 182.67 2 182H0ZM0.103444 188.074C0.149428 189.422 0.210662 190.766 0.286977 192.106L2.28374 191.993C2.20829 190.668 2.14775 189.339 2.10228 188.006L0.103444 188.074ZM0.563485 196.146C0.670927 197.489 0.793535 198.828 0.931139 200.162L2.92059 199.957C2.78455 198.638 2.66334 197.314 2.55712 195.986L0.563485 196.146ZM1.39325 204.187C1.56243 205.524 1.74671 206.857 1.94589 208.184L3.92375 207.887C3.72685 206.575 3.54468 205.258 3.37743 203.936L1.39325 204.187ZM2.59316 212.182C2.82416 213.51 3.07014 214.834 3.33094 216.152L5.29291 215.764C5.03512 214.461 4.79195 213.153 4.5636 211.839L2.59316 212.182ZM4.16223 220.112C4.45478 221.429 4.76218 222.741 5.08423 224.047L7.02605 223.568C6.7077 222.277 6.40384 220.98 6.11465 219.678L4.16223 220.112ZM6.09811 227.961C6.45171 229.263 6.81997 230.56 7.2027 231.85L9.12012 231.281C8.74179 230.006 8.37778 228.724 8.02825 227.437L6.09811 227.961ZM8.39718 235.711C8.81108 236.996 9.23943 238.275 9.68204 239.546L11.5709 238.889C11.1334 237.632 10.71 236.368 10.3008 235.098L8.39718 235.711ZM11.0546 243.347C11.5278 244.611 12.0153 245.868 12.5168 247.118L14.373 246.374C13.8773 245.138 13.3954 243.895 12.9276 242.645L11.0546 243.347ZM14.0644 250.85C14.5959 252.091 15.1413 253.324 15.7005 254.55L17.5201 253.72C16.9674 252.508 16.4282 251.289 15.9028 250.063L14.0644 250.85ZM17.4196 258.206C18.0081 259.421 18.6102 260.627 19.2257 261.826L21.0049 260.913C20.3964 259.728 19.8012 258.535 19.2194 257.334L17.4196 258.206ZM21.1124 265.398C21.7565 266.584 22.4138 267.762 23.0843 268.931L24.8192 267.936C24.1564 266.78 23.5066 265.616 22.87 264.444L21.1124 265.398ZM25.1347 272.413C25.8327 273.567 26.5435 274.713 27.2672 275.849L28.9543 274.775C28.239 273.652 27.5362 272.519 26.8463 271.378L25.1347 272.413ZM29.4766 279.233C30.2269 280.354 30.9897 281.465 31.7649 282.568L33.4007 281.417C32.6343 280.327 31.8802 279.229 31.1386 278.121L29.4766 279.233ZM34.1283 285.847C34.9291 286.931 35.7422 288.006 36.5672 289.071L38.1484 287.847C37.3327 286.794 36.5289 285.731 35.7372 284.659L34.1283 285.847ZM39.0792 292.238C39.9289 293.285 40.7905 294.321 41.6636 295.347L43.1868 294.051C42.3236 293.037 41.4718 292.012 40.6318 290.978L39.0792 292.238ZM44.3186 298.396C45.2154 299.402 46.1236 300.398 47.043 301.383L48.505 300.018C47.5961 299.044 46.6982 298.06 45.8117 297.065L44.3186 298.396ZM49.8352 304.306C50.7771 305.27 51.73 306.223 52.6937 307.165L54.0916 305.734C53.1388 304.803 52.1968 303.861 51.2656 302.908L49.8352 304.306ZM55.6172 309.957C56.6023 310.876 57.5979 311.785 58.604 312.681L59.9347 311.188C58.9401 310.302 57.9558 309.404 56.9819 308.495L55.6172 309.957ZM61.6525 315.336C62.6787 316.209 63.7151 317.071 64.7614 317.921L66.0222 316.368C64.9877 315.528 63.9631 314.676 62.9487 313.813L61.6525 315.336ZM67.9286 320.433C68.9938 321.258 70.0688 322.071 71.1533 322.872L72.3413 321.263C71.2691 320.471 70.2064 319.667 69.1533 318.852L67.9286 320.433ZM74.4324 325.235C75.5345 326.01 76.6459 326.773 77.7665 327.523L78.8791 325.861C77.7713 325.12 76.6726 324.366 75.583 323.599L74.4324 325.235ZM81.1505 329.733C82.2872 330.456 83.4329 331.167 84.5873 331.865L85.622 330.154C84.4809 329.464 83.3483 328.761 82.2245 328.046L81.1505 329.733ZM88.0691 333.916C89.2382 334.586 90.4158 335.243 91.6017 335.888L92.5562 334.13C91.3839 333.493 90.2198 332.844 89.064 332.181L88.0691 333.916ZM95.1738 337.774C96.3726 338.39 97.5794 338.992 98.794 339.58L99.6661 337.781C98.4653 337.199 97.2724 336.604 96.0873 335.995L95.1738 337.774ZM102.45 341.299C103.676 341.859 104.909 342.404 106.15 342.936L106.937 341.097C105.711 340.572 104.492 340.033 103.28 339.48L102.45 341.299ZM109.882 344.483C111.132 344.985 112.389 345.472 113.653 345.945L114.354 344.072C113.105 343.605 111.862 343.123 110.626 342.627L109.882 344.483ZM117.454 347.318C118.725 347.761 120.004 348.189 121.289 348.603L121.902 346.699C120.632 346.29 119.368 345.867 118.111 345.429L117.454 347.318ZM125.15 349.797C126.44 350.18 127.736 350.548 129.039 350.902L129.563 348.972C128.275 348.622 126.994 348.258 125.719 347.88L125.15 349.797ZM132.953 351.916C134.259 352.238 135.571 352.545 136.888 352.838L137.322 350.885C136.02 350.596 134.723 350.292 133.432 349.974L132.953 351.916ZM140.848 353.669C142.166 353.93 143.489 354.176 144.818 354.407L145.161 352.436C143.847 352.208 142.539 351.965 141.236 351.707L140.848 353.669ZM148.816 355.054C150.143 355.253 151.476 355.438 152.813 355.607L153.064 353.623C151.742 353.455 150.425 353.273 149.112 353.076L148.816 355.054ZM156.838 356.069C158.172 356.206 159.511 356.329 160.854 356.436L161.014 354.443C159.686 354.337 158.362 354.215 157.043 354.079L156.838 356.069ZM164.894 356.713C166.234 356.789 167.578 356.851 168.926 356.897L168.994 354.898C167.661 354.852 166.332 354.792 165.007 354.716L164.894 356.713ZM172.97 356.988C173.646 356.996 174.322 357 175 357V355C174.33 355 173.661 354.996 172.992 354.989L172.97 356.988ZM175 357H177V355H175V357ZM181 357H185V355H181V357ZM189 357H193V355H189V357ZM197 357H201V355H197V357ZM205 357H209V355H205V357ZM213 357H217V355H213V357ZM221 357H225V355H221V357ZM229 357H233V355H229V357ZM237 357H241V355H237V357ZM245 357H249V355H245V357ZM253 357H257V355H253V357ZM261 357H265V355H261V357ZM269 357H273V355H269V357ZM277 357H281V355H277V357ZM285 357H289V355H285V357ZM293 357H297V355H293V357ZM301 357H305V355H301V357ZM309 357H313V355H309V357ZM317 357H321V355H317V357ZM325 357H329V355H325V357ZM333 357H337V355H333V357ZM341 357H345V355H341V357ZM349 357H353V355H349V357ZM357 357H361V355H357V357ZM365 357H369V355H365V357ZM373 357H377V355H373V357ZM381 357H385V355H381V357ZM389 357H393V355H389V357ZM397 357H399V355H397V357Z" fill="white"/>
<path d="M432.293 7.29291C431.902 7.68341 431.902 8.31659 432.293 8.70709L438.657 15.0711C439.047 15.4616 439.681 15.4616 440.071 15.0711C440.462 14.6805 440.462 14.0474 440.071 13.6569L434.414 8L440.071 2.34314C440.462 1.95261 440.462 1.31946 440.071 0.928925C439.681 0.538422 439.047 0.538422 438.657 0.928925L432.293 7.29291ZM657 355H433V357H657V355ZM433 9H657V7H433V9ZM832 182C832 85.3502 753.65 7 657 7V9C752.545 9 830 86.4547 830 182H832ZM830 182C830 277.545 752.545 355 657 355V357C753.65 357 832 278.65 832 182H830Z" fill="white"/>
<path d="M395.785 173.392C394.777 173.392 393.778 173.243 392.789 172.944C391.818 172.627 390.922 172.132 390.101 171.46C389.298 170.769 388.654 169.864 388.169 168.744C387.702 167.624 387.469 166.252 387.469 164.628V152.812C387.469 152.569 387.59 152.448 387.833 152.448H390.885C391.128 152.448 391.249 152.569 391.249 152.812V163.956C391.249 165.972 391.678 167.437 392.537 168.352C393.414 169.248 394.497 169.696 395.785 169.696C396.644 169.696 397.409 169.5 398.081 169.108C398.772 168.697 399.322 168.072 399.733 167.232C400.144 166.392 400.349 165.3 400.349 163.956V152.812C400.349 152.569 400.47 152.448 400.713 152.448H403.765C404.008 152.448 404.129 152.569 404.129 152.812V164.628C404.129 166.252 403.886 167.624 403.401 168.744C402.916 169.864 402.272 170.769 401.469 171.46C400.666 172.132 399.77 172.627 398.781 172.944C397.792 173.243 396.793 173.392 395.785 173.392ZM413.344 173.28C411.758 173.28 410.423 172.953 409.34 172.3C408.276 171.628 407.511 170.667 407.044 169.416C406.951 169.173 407.035 169.024 407.296 168.968L409.844 168.268C410.05 168.212 410.199 168.287 410.292 168.492C410.628 169.071 411.039 169.481 411.524 169.724C412.028 169.948 412.588 170.06 413.204 170.06C413.82 170.06 414.324 169.985 414.716 169.836C415.127 169.687 415.332 169.407 415.332 168.996C415.332 168.679 415.164 168.427 414.828 168.24C414.492 168.035 413.942 167.82 413.176 167.596L412.476 167.4C410.74 166.915 409.499 166.252 408.752 165.412C408.024 164.572 407.66 163.592 407.66 162.472C407.66 161.651 407.894 160.923 408.36 160.288C408.827 159.635 409.471 159.131 410.292 158.776C411.132 158.403 412.094 158.216 413.176 158.216C414.576 158.216 415.762 158.515 416.732 159.112C417.703 159.709 418.412 160.624 418.86 161.856C418.954 162.099 418.879 162.248 418.636 162.304L416.088 163.116C415.883 163.191 415.724 163.125 415.612 162.92C415.37 162.472 415.043 162.117 414.632 161.856C414.24 161.576 413.736 161.436 413.12 161.436C412.654 161.436 412.252 161.52 411.916 161.688C411.58 161.837 411.412 162.099 411.412 162.472C411.412 162.808 411.58 163.088 411.916 163.312C412.271 163.517 412.85 163.723 413.652 163.928L414.324 164.096C416.098 164.544 417.33 165.16 418.02 165.944C418.73 166.709 419.084 167.699 419.084 168.912C419.084 169.789 418.832 170.564 418.328 171.236C417.843 171.889 417.171 172.393 416.312 172.748C415.454 173.103 414.464 173.28 413.344 173.28ZM428.332 173.28C426.82 173.28 425.513 172.963 424.412 172.328C423.31 171.675 422.461 170.779 421.864 169.64C421.285 168.501 420.996 167.204 420.996 165.748C420.996 164.273 421.285 162.976 421.864 161.856C422.461 160.717 423.31 159.831 424.412 159.196C425.513 158.543 426.82 158.216 428.332 158.216C429.825 158.216 431.085 158.561 432.112 159.252C433.157 159.943 433.941 160.913 434.464 162.164C435.005 163.396 435.248 164.843 435.192 166.504C435.173 166.747 435.042 166.868 434.8 166.868H424.86C425.028 167.857 425.41 168.641 426.008 169.22C426.605 169.78 427.389 170.06 428.36 170.06C429.816 170.06 430.88 169.509 431.552 168.408C431.645 168.24 431.804 168.184 432.028 168.24L434.52 169.108C434.762 169.201 434.828 169.36 434.716 169.584C434.081 170.853 433.194 171.787 432.056 172.384C430.917 172.981 429.676 173.28 428.332 173.28ZM428.304 161.436C427.445 161.436 426.717 161.679 426.12 162.164C425.541 162.631 425.14 163.293 424.916 164.152H431.3C431.132 163.293 430.786 162.631 430.264 162.164C429.741 161.679 429.088 161.436 428.304 161.436ZM438.25 173C438.008 173 437.886 172.879 437.886 172.636V158.86C437.886 158.617 438.008 158.496 438.25 158.496H440.882C441.144 158.496 441.274 158.617 441.274 158.86L441.358 160.68C441.844 159.896 442.488 159.308 443.29 158.916C444.093 158.505 444.924 158.3 445.782 158.3C446.156 158.3 446.482 158.328 446.762 158.384C446.968 158.44 447.07 158.571 447.07 158.776V161.66C447.07 161.903 446.94 162.005 446.678 161.968C446.492 161.949 446.286 161.931 446.062 161.912C445.857 161.875 445.614 161.856 445.334 161.856C444.681 161.856 444.065 162.005 443.486 162.304C442.908 162.584 442.432 162.995 442.058 163.536C441.704 164.077 441.526 164.731 441.526 165.496V172.636C441.526 172.879 441.405 173 441.162 173H438.25ZM374.848 212C374.605 212 374.484 211.879 374.484 211.636V191.812C374.484 191.569 374.605 191.448 374.848 191.448H381.064C383.771 191.448 385.805 192.073 387.168 193.324C388.531 194.575 389.212 196.339 389.212 198.616C389.212 200.875 388.531 202.639 387.168 203.908C385.805 205.159 383.771 205.784 381.064 205.784H378.264V211.636C378.264 211.879 378.143 212 377.9 212H374.848ZM380.924 194.948H378.264V202.284H380.924C382.324 202.284 383.397 201.985 384.144 201.388C384.909 200.791 385.292 199.839 385.292 198.532C385.292 197.319 384.909 196.423 384.144 195.844C383.397 195.247 382.324 194.948 380.924 194.948ZM392.723 212C392.48 212 392.359 211.879 392.359 211.636V197.86C392.359 197.617 392.48 197.496 392.723 197.496H395.355C395.616 197.496 395.747 197.617 395.747 197.86L395.831 199.68C396.316 198.896 396.96 198.308 397.763 197.916C398.566 197.505 399.396 197.3 400.255 197.3C400.628 197.3 400.955 197.328 401.235 197.384C401.44 197.44 401.543 197.571 401.543 197.776V200.66C401.543 200.903 401.412 201.005 401.151 200.968C400.964 200.949 400.759 200.931 400.535 200.912C400.33 200.875 400.087 200.856 399.807 200.856C399.154 200.856 398.538 201.005 397.959 201.304C397.38 201.584 396.904 201.995 396.531 202.536C396.176 203.077 395.999 203.731 395.999 204.496V211.636C395.999 211.879 395.878 212 395.635 212H392.723ZM410.566 212.28C409.017 212.28 407.663 211.963 406.506 211.328C405.367 210.675 404.481 209.779 403.846 208.64C403.211 207.501 402.894 206.204 402.894 204.748C402.894 203.273 403.211 201.976 403.846 200.856C404.481 199.717 405.367 198.831 406.506 198.196C407.663 197.543 409.017 197.216 410.566 197.216C412.115 197.216 413.459 197.543 414.598 198.196C415.755 198.831 416.651 199.717 417.286 200.856C417.921 201.976 418.238 203.273 418.238 204.748C418.238 206.204 417.921 207.501 417.286 208.64C416.651 209.779 415.755 210.675 414.598 211.328C413.459 211.963 412.115 212.28 410.566 212.28ZM410.566 208.976C411.723 208.976 412.666 208.584 413.394 207.8C414.122 207.016 414.486 205.999 414.486 204.748C414.486 203.497 414.122 202.48 413.394 201.696C412.666 200.912 411.723 200.52 410.566 200.52C409.409 200.52 408.466 200.912 407.738 201.696C407.01 202.48 406.646 203.497 406.646 204.748C406.646 205.999 407.01 207.016 407.738 207.8C408.466 208.584 409.409 208.976 410.566 208.976ZM422.439 212C422.196 212 422.075 211.879 422.075 211.636V200.744H420.059C419.816 200.744 419.695 200.623 419.695 200.38V197.86C419.695 197.617 419.816 197.496 420.059 197.496H422.075V196.572C422.075 194.799 422.532 193.399 423.447 192.372C424.38 191.327 425.621 190.804 427.171 190.804C428.608 190.804 429.784 191.224 430.699 192.064C430.848 192.213 430.867 192.381 430.755 192.568L429.495 194.528C429.364 194.752 429.196 194.78 428.991 194.612C428.524 194.276 428.011 194.108 427.451 194.108C426.293 194.108 425.715 194.911 425.715 196.516V197.496H434.983C435.225 197.496 435.347 197.617 435.347 197.86V211.636C435.347 211.879 435.225 212 434.983 212H432.071C431.828 212 431.707 211.879 431.707 211.636V200.744H425.715V211.636C425.715 211.879 425.593 212 425.351 212H422.439ZM433.527 195.396C432.911 195.396 432.397 195.2 431.987 194.808C431.576 194.416 431.371 193.912 431.371 193.296C431.371 192.68 431.576 192.176 431.987 191.784C432.397 191.392 432.911 191.196 433.527 191.196C434.143 191.196 434.656 191.392 435.067 191.784C435.477 192.176 435.683 192.68 435.683 193.296C435.683 193.912 435.477 194.416 435.067 194.808C434.656 195.2 434.143 195.396 433.527 195.396ZM439.536 212C439.293 212 439.172 211.879 439.172 211.636V191.364C439.172 191.121 439.293 191 439.536 191H442.448C442.69 191 442.812 191.121 442.812 191.364V211.636C442.812 211.879 442.69 212 442.448 212H439.536ZM453.105 212.28C451.593 212.28 450.286 211.963 449.185 211.328C448.084 210.675 447.234 209.779 446.637 208.64C446.058 207.501 445.769 206.204 445.769 204.748C445.769 203.273 446.058 201.976 446.637 200.856C447.234 199.717 448.084 198.831 449.185 198.196C450.286 197.543 451.593 197.216 453.105 197.216C454.598 197.216 455.858 197.561 456.885 198.252C457.93 198.943 458.714 199.913 459.237 201.164C459.778 202.396 460.021 203.843 459.965 205.504C459.946 205.747 459.816 205.868 459.573 205.868H449.633C449.801 206.857 450.184 207.641 450.781 208.22C451.378 208.78 452.162 209.06 453.133 209.06C454.589 209.06 455.653 208.509 456.325 207.408C456.418 207.24 456.577 207.184 456.801 207.24L459.293 208.108C459.536 208.201 459.601 208.36 459.489 208.584C458.854 209.853 457.968 210.787 456.829 211.384C455.69 211.981 454.449 212.28 453.105 212.28ZM453.077 200.436C452.218 200.436 451.49 200.679 450.893 201.164C450.314 201.631 449.913 202.293 449.689 203.152H456.073C455.905 202.293 455.56 201.631 455.037 201.164C454.514 200.679 453.861 200.436 453.077 200.436Z" fill="white"/>
<rect x="537" y="62" width="240" height="240" rx="120" fill="#06C755"/>
<path d="M587 166.741V148.824C587 148.566 587.151 148.414 587.409 148.414H591.363C591.617 148.414 591.772 148.566 591.772 148.824V162.633H599.986C600.216 162.633 600.368 162.785 600.368 163.015V166.741C600.368 166.995 600.216 167.15 599.986 167.15H587.409C587.151 167.147 587 166.995 587 166.741Z" fill="#111111"/>
<path d="M602.405 166.741V148.824C602.405 148.569 602.557 148.414 602.815 148.414H606.768C607.023 148.414 607.178 148.566 607.178 148.824V166.741C607.178 166.995 607.026 167.15 606.768 167.15H602.815C602.56 167.147 602.405 166.995 602.405 166.741Z" fill="#111111"/>
<path d="M609.675 166.741V148.824C609.675 148.566 609.83 148.414 610.084 148.414H614.217C614.447 148.414 614.575 148.517 614.702 148.696L621.384 159.824V148.824C621.384 148.569 621.536 148.414 621.794 148.414H625.544C625.799 148.414 625.954 148.566 625.954 148.824V166.741C625.954 166.995 625.802 167.15 625.544 167.15H621.436C621.205 167.15 621.054 167.047 620.951 166.868L614.241 155.689V166.741C614.241 166.995 614.09 167.15 613.832 167.15H610.081C609.83 167.147 609.675 166.995 609.675 166.741Z" fill="#111111"/>
<path d="M628.5 166.741V148.824C628.5 148.569 628.651 148.414 628.909 148.414H641.231C641.461 148.414 641.64 148.566 641.64 148.824V152.115C641.64 152.37 641.461 152.525 641.231 152.525H633.22V155.589H640.288C640.543 155.589 640.698 155.741 640.698 155.999V159.163C640.698 159.418 640.546 159.573 640.288 159.573H633.22V163.043H641.537C641.768 163.043 641.947 163.194 641.947 163.453V166.744C641.947 166.999 641.768 167.154 641.537 167.154H628.909C628.651 167.147 628.5 166.995 628.5 166.741Z" fill="#111111"/>
<path d="M587 190.827V172.91C587 172.655 587.151 172.5 587.409 172.5H599.322C599.576 172.5 599.731 172.652 599.731 172.91V176.356C599.731 176.587 599.58 176.738 599.322 176.738H591.769V180.336H598.097C598.351 180.336 598.506 180.488 598.506 180.746V184.192C598.506 184.423 598.355 184.574 598.097 184.574H591.769V190.827C591.769 191.082 591.617 191.236 591.359 191.236H587.409C587.151 191.236 587 191.085 587 190.827Z" fill="#111111"/>
<path d="M600.716 190.827V178.067C600.716 177.837 600.868 177.685 601.126 177.685H604.316C604.57 177.685 604.749 177.812 604.749 178.067L604.825 179.444C605.744 178.091 607.196 177.506 608.806 177.506C609.164 177.506 609.494 177.53 609.776 177.609C610.007 177.685 610.134 177.84 610.134 178.067V181.565C610.134 181.82 609.955 181.947 609.677 181.896C609.319 181.844 608.913 181.768 608.376 181.768C607.024 181.768 605.314 182.636 605.314 184.626V190.827C605.314 191.081 605.162 191.236 604.904 191.236H601.126C600.871 191.236 600.716 191.085 600.716 190.827Z" fill="#111111"/>
<path d="M610.652 184.448C610.652 180.313 613.56 177.428 618.074 177.428C622.589 177.428 625.496 180.313 625.496 184.448C625.496 188.607 622.589 191.492 618.074 191.492C613.56 191.492 610.652 188.607 610.652 184.448ZM620.854 184.448C620.854 182.688 619.733 181.463 618.074 181.463C616.416 181.463 615.294 182.688 615.294 184.448C615.294 186.21 616.416 187.46 618.074 187.46C619.733 187.46 620.854 186.21 620.854 184.448Z" fill="#111111"/>
<path d="M627.133 190.827V178.068C627.133 177.837 627.285 177.686 627.543 177.686H630.733C630.987 177.686 631.166 177.813 631.166 178.068L631.218 179.266C632.212 178.04 633.716 177.428 635.502 177.428C638.716 177.428 640.525 179.29 640.525 182.406V190.827C640.525 191.082 640.374 191.237 640.116 191.237H636.341C636.087 191.237 635.932 191.086 635.932 190.827V184.114C635.932 182.224 635.343 181.459 633.995 181.459C632.67 181.459 631.724 182.454 631.724 184.444V190.824C631.724 191.079 631.572 191.234 631.314 191.234H627.54C627.288 191.237 627.133 191.086 627.133 190.827Z" fill="#111111"/>
<path d="M643.409 185.494V181.614H641.802C641.547 181.614 641.393 181.463 641.393 181.205V178.14C641.393 177.91 641.544 177.731 641.802 177.731H643.409V174.546C643.409 174.291 643.56 174.136 643.818 174.136H647.593C647.848 174.136 648.003 174.288 648.003 174.546V177.738H650.707C650.962 177.738 651.117 177.917 651.117 178.147V181.211C651.117 181.466 650.965 181.621 650.707 181.621H648.003V185.935C648.003 187.085 648.309 187.619 649.025 187.619C649.331 187.619 649.534 187.491 649.764 187.133C649.892 186.954 650.019 186.903 650.274 187.03L652.851 188.128C653.081 188.232 653.157 188.459 653.002 188.765C652.032 190.704 650.119 191.495 648.333 191.495C644.913 191.492 643.409 189.375 643.409 185.494Z" fill="#111111"/>
<path d="M653.344 184.55V181.283C653.344 181.052 653.496 180.901 653.754 180.901H661.84C662.095 180.901 662.249 181.052 662.249 181.283V184.55C662.249 184.805 662.098 184.96 661.84 184.96H653.754C653.496 184.956 653.344 184.805 653.344 184.55Z" fill="#111111"/>
<path d="M664.356 184.447C664.356 180.312 667.136 177.427 671.447 177.427C675.962 177.427 678.412 180.619 678.157 185.239C678.133 185.494 677.978 185.621 677.724 185.621H669.001C669.331 186.947 670.198 187.687 671.475 187.687C672.469 187.687 673.233 187.381 673.718 186.716C673.87 186.537 674.049 186.485 674.255 186.537L677.521 187.635C677.751 187.739 677.851 187.918 677.724 188.172C676.475 190.496 674.025 191.491 671.447 191.491C667.139 191.491 664.356 188.606 664.356 184.447ZM669.001 183.122H673.643C673.388 181.769 672.597 181.028 671.399 181.028C670.123 181.028 669.28 181.741 669.001 183.122Z" fill="#111111"/>
<path d="M679.746 190.827V178.068C679.746 177.837 679.897 177.686 680.155 177.686H683.345C683.599 177.686 683.778 177.813 683.778 178.068L683.83 179.266C684.824 178.04 686.328 177.428 688.114 177.428C691.328 177.428 693.138 179.29 693.138 182.406V190.827C693.138 191.082 692.986 191.237 692.728 191.237H688.953C688.699 191.237 688.544 191.086 688.544 190.827V184.114C688.544 182.224 687.956 181.459 686.607 181.459C685.282 181.459 684.336 182.454 684.336 184.444V190.824C684.336 191.079 684.184 191.234 683.926 191.234H680.152C679.897 191.237 679.746 191.086 679.746 190.827Z" fill="#111111"/>
<path d="M694.728 184.448C694.728 180.237 697.253 177.427 701.028 177.427C702.456 177.427 703.657 177.885 704.575 178.729V172.91C704.575 172.656 704.727 172.501 704.985 172.501H708.76C709.014 172.501 709.169 172.652 709.169 172.91V190.827C709.169 191.082 709.018 191.237 708.76 191.237H705.546C705.315 191.237 705.136 191.086 705.136 190.827L705.085 189.629C704.114 190.827 702.738 191.492 701.028 191.492C697.253 191.492 694.728 188.658 694.728 184.448ZM704.93 184.448C704.93 182.688 703.808 181.463 702.15 181.463C700.491 181.463 699.369 182.688 699.369 184.448C699.369 186.21 700.491 187.46 702.15 187.46C703.808 187.46 704.93 186.21 704.93 184.448Z" fill="#111111"/>
<path d="M587 214.917V197C587 196.745 587.151 196.59 587.409 196.59H599.322C599.576 196.59 599.731 196.742 599.731 197V200.446C599.731 200.677 599.58 200.828 599.322 200.828H591.769V204.426H598.097C598.351 204.426 598.506 204.578 598.506 204.836V208.282C598.506 208.513 598.355 208.664 598.097 208.664H591.769V214.917C591.769 215.171 591.617 215.326 591.359 215.326H587.409C587.151 215.326 587 215.171 587 214.917Z" fill="#111111"/>
<path d="M600.716 214.917V202.154C600.716 201.923 600.868 201.772 601.126 201.772H604.316C604.57 201.772 604.749 201.899 604.749 202.154L604.825 203.531C605.744 202.178 607.196 201.593 608.806 201.593C609.164 201.593 609.494 201.617 609.776 201.696C610.007 201.772 610.134 201.927 610.134 202.154V205.652C610.134 205.907 609.955 206.034 609.677 205.982C609.319 205.931 608.913 205.855 608.376 205.855C607.024 205.855 605.314 206.723 605.314 208.713V214.913C605.314 215.168 605.162 215.323 604.904 215.323H601.126C600.871 215.326 600.716 215.171 600.716 214.917Z" fill="#111111"/>
<path d="M610.681 208.538C610.681 204.328 613.207 201.518 616.982 201.518C618.692 201.518 620.068 202.183 621.038 203.357L621.09 202.159C621.09 201.904 621.269 201.776 621.499 201.776H624.713C624.968 201.776 625.123 201.928 625.123 202.159V214.921C625.123 215.176 624.971 215.331 624.713 215.331H621.499C621.269 215.331 621.09 215.18 621.09 214.921L621.038 213.723C620.068 214.921 618.692 215.586 616.982 215.586C613.207 215.582 610.681 212.749 610.681 208.538ZM620.887 208.538C620.887 206.779 619.765 205.553 618.107 205.553C616.448 205.553 615.326 206.779 615.326 208.538C615.326 210.301 616.448 211.551 618.107 211.551C619.762 211.547 620.887 210.298 620.887 208.538Z" fill="#111111"/>
<path d="M627.472 214.918V202.155C627.472 201.924 627.623 201.773 627.881 201.773H631.095C631.35 201.773 631.505 201.876 631.505 202.155L631.58 203.456C632.551 202.131 633.979 201.518 635.737 201.518C637.674 201.518 639.13 202.258 639.945 203.584C640.916 202.179 642.471 201.518 644.332 201.518C647.443 201.518 649.256 203.381 649.256 206.497V214.918C649.256 215.173 649.105 215.328 648.874 215.328H645.072C644.842 215.328 644.663 215.176 644.663 214.918V208.204C644.663 206.314 644.078 205.55 642.825 205.55C641.525 205.55 640.657 206.545 640.657 208.535V214.914C640.657 215.169 640.506 215.324 640.248 215.324H636.473C636.219 215.324 636.064 215.173 636.064 214.914V208.201C636.064 206.311 635.475 205.546 634.226 205.546C632.926 205.546 632.059 206.541 632.059 208.531V214.911C632.059 215.166 631.907 215.321 631.649 215.321H627.875C627.627 215.328 627.472 215.173 627.472 214.918Z" fill="#111111"/>
<path d="M650.828 208.538C650.828 204.403 653.609 201.518 657.92 201.518C662.435 201.518 664.885 204.71 664.63 209.33C664.606 209.585 664.451 209.712 664.196 209.712H655.474C655.804 211.038 656.671 211.778 657.948 211.778C658.942 211.778 659.706 211.472 660.191 210.807C660.343 210.628 660.521 210.576 660.728 210.628L663.993 211.726C664.224 211.83 664.324 212.009 664.196 212.263C662.947 214.587 660.497 215.582 657.92 215.582C653.609 215.582 650.828 212.697 650.828 208.538ZM655.47 207.209H660.112C659.857 205.856 659.066 205.116 657.869 205.116C656.592 205.116 655.749 205.832 655.47 207.209Z" fill="#111111"/>
<path d="M669.172 215.02L664.503 202.233C664.4 201.951 664.527 201.775 664.833 201.775H668.914C669.117 201.775 669.296 201.851 669.372 202.106L671.309 208.437L673.859 202.058C673.935 201.855 674.089 201.751 674.317 201.751H676.715C676.945 201.751 677.097 201.855 677.173 202.058L679.571 208.465L681.663 202.109C681.739 201.879 681.918 201.779 682.121 201.779H685.716C685.998 201.779 686.126 201.958 686.047 202.237L681.353 215.024C681.302 215.227 681.123 215.33 680.92 215.33H678.497C678.267 215.33 678.115 215.227 678.04 215L675.363 207.904L672.507 215.024C672.403 215.203 672.276 215.33 672.049 215.33H669.627C669.403 215.327 669.248 215.223 669.172 215.02Z" fill="#111111"/>
<path d="M685.957 208.538C685.957 204.403 688.865 201.518 693.379 201.518C697.894 201.518 700.801 204.403 700.801 208.538C700.801 212.697 697.894 215.582 693.379 215.582C688.865 215.582 685.957 212.697 685.957 208.538ZM696.16 208.538C696.16 206.779 695.038 205.553 693.379 205.553C691.721 205.553 690.599 206.779 690.599 208.538C690.599 210.301 691.721 211.551 693.379 211.551C695.038 211.551 696.16 210.298 696.16 208.538Z" fill="#111111"/>
<path d="M702.44 214.917V202.154C702.44 201.924 702.591 201.772 702.849 201.772H706.039C706.294 201.772 706.473 201.9 706.473 202.154L706.548 203.532C707.467 202.179 708.919 201.593 710.529 201.593C710.887 201.593 711.218 201.617 711.5 201.697C711.73 201.772 711.858 201.927 711.858 202.154V205.652C711.858 205.907 711.679 206.035 711.4 205.983C711.042 205.931 710.636 205.856 710.099 205.856C708.747 205.856 707.037 206.723 707.037 208.713V214.914C707.037 215.169 706.885 215.324 706.627 215.324H702.853C702.595 215.327 702.44 215.172 702.44 214.917Z" fill="#111111"/>
<path d="M712.875 214.917V197C712.875 196.745 713.027 196.59 713.285 196.59H717.059C717.314 196.59 717.469 196.742 717.469 197V206.316L721.244 202.002C721.395 201.823 721.55 201.772 721.729 201.772H726.192C726.522 201.772 726.649 202.002 726.395 202.257L722.365 206.444L726.931 214.841C727.083 215.123 726.983 215.326 726.649 215.326H722.413C722.183 215.326 722.031 215.251 721.928 215.044L719.148 209.787L717.465 211.522V214.917C717.465 215.171 717.314 215.326 717.056 215.326H713.281C713.03 215.326 712.875 215.171 712.875 214.917Z" fill="#111111"/>
<rect x="56.25" y="63.25" width="237.5" height="237.5" rx="118.75" fill="#181818"/>
<path d="M137.456 175.634C137.152 175.634 137 175.484 137 175.184V155.45C137 155.15 137.152 155 137.456 155H141.878C142.183 155 142.335 155.15 142.335 155.45V170.658H151.521C151.806 170.658 151.949 170.799 151.949 171.08V175.184C151.949 175.484 151.806 175.634 151.521 175.634H137.456Z" fill="#06C755"/>
<path d="M154.762 175.634C154.458 175.634 154.306 175.484 154.306 175.184V155.45C154.306 155.15 154.458 155 154.762 155H159.184C159.488 155 159.64 155.15 159.64 155.45V175.184C159.64 175.484 159.488 175.634 159.184 175.634H154.762Z" fill="#06C755"/>
<path d="M163.682 175.634C163.377 175.634 163.225 175.484 163.225 175.184V155.45C163.225 155.15 163.377 155 163.682 155H168.303C168.513 155 168.693 155.103 168.845 155.309L176.32 167.566V155.45C176.32 155.15 176.472 155 176.776 155H180.97C181.274 155 181.426 155.15 181.426 155.45V175.184C181.426 175.484 181.274 175.634 180.97 175.634H176.377C176.13 175.634 175.949 175.531 175.835 175.325L168.332 163.012V175.184C168.332 175.484 168.18 175.634 167.875 175.634H163.682Z" fill="#06C755"/>
<path d="M185.473 175.634C185.168 175.634 185.016 175.484 185.016 175.184V155.45C185.016 155.15 185.168 155 185.473 155H199.252C199.556 155 199.708 155.15 199.708 155.45V159.076C199.708 159.376 199.556 159.526 199.252 159.526H190.294V162.899H198.196C198.501 162.899 198.653 163.049 198.653 163.349V166.835C198.653 167.135 198.501 167.285 198.196 167.285H190.294V171.108H199.594C199.898 171.108 200.051 171.258 200.051 171.558V175.184C200.051 175.484 199.898 175.634 199.594 175.634H185.473Z" fill="#06C755"/>
<path d="M137.456 202.591C137.152 202.591 137 202.441 137 202.141V182.406C137 182.106 137.152 181.956 137.456 181.956H141.878C142.183 181.956 142.335 182.106 142.335 182.406V197.615H151.521C151.806 197.615 151.949 197.755 151.949 198.036V202.141C151.949 202.441 151.806 202.591 151.521 202.591H137.456Z" fill="#06C755"/>
<path d="M161.466 202.872C159.792 202.872 158.328 202.544 157.073 201.888C155.837 201.232 154.876 200.323 154.191 199.161C153.507 197.98 153.164 196.631 153.164 195.113C153.164 193.595 153.507 192.255 154.191 191.093C154.876 189.931 155.837 189.022 157.073 188.366C158.328 187.71 159.792 187.382 161.466 187.382C163.159 187.382 164.623 187.71 165.859 188.366C167.096 189.022 168.056 189.931 168.741 191.093C169.426 192.255 169.768 193.595 169.768 195.113C169.768 196.631 169.426 197.98 168.741 199.161C168.056 200.323 167.096 201.232 165.859 201.888C164.623 202.544 163.159 202.872 161.466 202.872ZM161.466 198.43C162.398 198.43 163.149 198.121 163.72 197.502C164.29 196.884 164.576 196.087 164.576 195.113C164.576 194.138 164.29 193.351 163.72 192.751C163.149 192.133 162.398 191.824 161.466 191.824C160.534 191.824 159.783 192.133 159.212 192.751C158.642 193.351 158.357 194.138 158.357 195.113C158.357 196.087 158.642 196.884 159.212 197.502C159.783 198.121 160.534 198.43 161.466 198.43Z" fill="#06C755"/>
<path d="M178.843 209C177.055 209 175.505 208.616 174.193 207.847C172.9 207.079 171.987 206.011 171.454 204.643C171.34 204.38 171.435 204.202 171.74 204.109L175.02 203.097C175.249 203.022 175.448 203.097 175.619 203.321C175.924 203.734 176.314 204.08 176.789 204.362C177.284 204.643 177.921 204.783 178.701 204.783C179.69 204.783 180.498 204.54 181.125 204.052C181.753 203.584 182.067 202.862 182.067 201.888V201.185C181.002 202.141 179.68 202.619 178.101 202.619C176.694 202.619 175.458 202.3 174.393 201.663C173.347 201.007 172.529 200.107 171.939 198.964C171.35 197.802 171.055 196.481 171.055 195C171.055 193.501 171.35 192.18 171.939 191.037C172.529 189.893 173.347 189.003 174.393 188.366C175.458 187.71 176.694 187.382 178.101 187.382C180.003 187.382 181.515 188.057 182.637 189.406L182.695 188.085C182.695 187.804 182.847 187.663 183.151 187.663H186.746C187.05 187.663 187.202 187.804 187.202 188.085V201.129C187.202 202.947 186.831 204.437 186.089 205.598C185.367 206.76 184.368 207.613 183.094 208.157C181.839 208.719 180.422 209 178.843 209ZM179.357 198.43C180.27 198.43 181.011 198.121 181.582 197.502C182.171 196.884 182.466 196.087 182.466 195.113C182.466 194.138 182.171 193.351 181.582 192.751C181.011 192.133 180.27 191.824 179.357 191.824C178.444 191.824 177.693 192.133 177.103 192.751C176.532 193.351 176.247 194.138 176.247 195.113C176.247 196.087 176.532 196.884 177.103 197.502C177.693 198.121 178.444 198.43 179.357 198.43Z" fill="#06C755"/>
<path d="M192.618 185.695C191.819 185.695 191.144 185.461 190.592 184.993C190.06 184.505 189.793 183.868 189.793 183.081C189.793 182.294 190.06 181.657 190.592 181.169C191.144 180.682 191.819 180.438 192.618 180.438C193.416 180.438 194.082 180.682 194.615 181.169C195.166 181.657 195.442 182.294 195.442 183.081C195.442 183.868 195.166 184.505 194.615 184.993C194.082 185.461 193.416 185.695 192.618 185.695ZM190.507 202.591C190.202 202.591 190.05 202.441 190.05 202.141V188.085C190.05 187.804 190.202 187.663 190.507 187.663H194.729C195.033 187.663 195.185 187.804 195.185 188.085V202.141C195.185 202.441 195.033 202.591 194.729 202.591H190.507Z" fill="#06C755"/>
<path d="M198.479 202.591C198.175 202.591 198.023 202.441 198.023 202.141V188.085C198.023 187.804 198.175 187.663 198.479 187.663H202.045C202.368 187.663 202.53 187.804 202.53 188.085L202.587 189.406C203.158 188.731 203.852 188.225 204.67 187.888C205.488 187.551 206.391 187.382 207.38 187.382C209.187 187.382 210.575 187.869 211.545 188.844C212.515 189.8 213 191.14 213 192.864V202.141C213 202.441 212.848 202.591 212.544 202.591H208.321C208.017 202.591 207.865 202.441 207.865 202.141V194.747C207.865 193.698 207.694 192.948 207.351 192.498C207.009 192.049 206.458 191.824 205.697 191.824C204.955 191.824 204.346 192.095 203.871 192.639C203.395 193.182 203.158 194.007 203.158 195.113V202.141C203.158 202.441 203.006 202.591 202.701 202.591H198.479Z" fill="#06C755"/>
<rect x="56.25" y="63.25" width="237.5" height="237.5" rx="118.75" stroke="#06C755" stroke-width="2.5" stroke-miterlimit="2.9987"/>
</svg>
